<?xml version="1.0" encoding="utf-8"?>
<!-- Generator: Adobe Illustrator 23.0.3, SVG Export Plug-In . SVG Version: 6.00 Build 0)  -->
<svg version="1.1" id="Layer_1" xmlns="http://www.w3.org/2000/svg" xmlns:xlink="http://www.w3.org/1999/xlink" x="0px" y="0px"
	 viewBox="0 0 1124.3 1000" style="enable-background:new 0 0 1124.3 1000;" xml:space="preserve">
<style type="text/css">
	.st0{fill:#F24D21;}
</style>
<g>
	<g>
		<g>
			<path class="st0" d="M815.88,383.77c-0.34-0.6-0.34-1,0-1.21c0.94-0.68,3.9-1.38,8.88-2.11l23.32-3.96
				c0.04-0.04,0.15-0.06,0.32-0.06c0.3,0,0.98,0.21,2.04,0.64c1.87,0.77,3.11,1.98,3.71,3.64c0.21,0.51,0.21,1.11,0,1.79
				l-12.39,21.65l0.32,0.19c0.17,0.09,0.43,0.22,0.77,0.42c0.34,0.19,0.7,0.39,1.09,0.61c1.58,0.77,4.58,3.41,9.01,7.92
				c4.43,4.51,6.75,7.28,6.96,8.3c0.08,0.34,0.13,0.83,0.13,1.47c0,1.96-0.83,2.94-2.49,2.94c-1.41,0-2.98-0.55-4.73-1.66
				c-3.71-2.43-7.67-5.69-11.88-9.77c-2.26-2.26-3.64-3.39-4.15-3.39c-0.43,0-0.97,0.3-1.63,0.89c-0.66,0.6-1.38,1.4-2.17,2.4
				c-0.79,1-1.51,1.94-2.17,2.81c-0.66,0.87-1.35,1.84-2.08,2.91c-0.72,1.06-1.17,1.7-1.34,1.92c-1.92,2.56-3.28,4.05-4.09,4.47
				c-0.77,0.38-1.28,0.57-1.53,0.57c-0.25,0-0.55-0.15-0.89-0.45c-0.89-0.77-1.34-1.87-1.34-3.32c0-1.23,0.42-2.98,1.28-5.24
				c1.41-3.62,4.55-9.35,9.42-17.18c4.88-7.84,7.61-12.31,8.21-13.41c0.25-0.47,0.38-0.81,0.38-1.02c0-0.04-0.02-0.06-0.06-0.06
				c-0.04,0-0.13,0.01-0.26,0.03c-0.13,0.02-0.26,0.05-0.38,0.1c-5.24,1.45-10.2,2.17-14.88,2.17c-0.21,0-0.51-0.01-0.89-0.03
				c-0.38-0.02-0.68-0.03-0.89-0.03c-3.36-0.17-5.05-1.3-5.05-3.39C816.31,384.75,816.14,384.24,815.88,383.77z"/>
		</g>
		<g>
			<path class="st0" d="M814.22,500.67c0-0.94,0.42-2.72,1.28-5.37c1.28-3.83,2.98-7.88,5.11-12.14c0.89-1.75,1.66-3.17,2.3-4.28
				c1.19-2.04,2.43-3.15,3.71-3.32c0.55-0.04,1.53-0.11,2.94-0.19c1.58-0.04,2.73-0.12,3.45-0.22c0.72-0.11,1.66-0.16,2.81-0.16
				h2.62c6.56,0.21,11.39,0.75,14.5,1.6c3.24,0.89,5.28,2.21,6.13,3.96c0.34,0.68,0.51,1.64,0.51,2.87c0,1.32-0.21,2.77-0.64,4.34
				c-0.81,3.07-2.13,6.32-3.96,9.77c-2.04,3.83-4.05,7.3-6,10.41c-1.83,2.85-3.9,5.88-6.2,9.07c-1.88,2.6-3.37,4.54-4.47,5.81
				c-0.94,1.06-1.41,1.75-1.41,2.04c0,0.64-0.49,1.02-1.47,1.15c-0.09,0-0.19,0.01-0.32,0.03c-0.13,0.02-0.21,0.03-0.25,0.03
				c-0.98,0-1.76-0.34-2.33-1.02c-0.58-0.68-0.86-1.58-0.86-2.68v-0.45c0.04-1.75,0.23-3.21,0.58-4.41
				c0.34-1.36,1.13-3.53,2.36-6.52c1.36-3.41,1.98-5.13,1.85-5.17l-13.48-7.6l-0.64,1.21c-0.38,0.77-1.07,1.49-2.04,2.17
				c-0.98,0.68-1.98,1.11-3,1.28c-0.08,0-0.18,0.01-0.29,0.03c-0.11,0.02-0.18,0.03-0.22,0.03c-0.6,0-1.17-0.21-1.72-0.64
				C814.5,501.9,814.22,501.35,814.22,500.67z M828.08,491.79c0,0.94,0.8,1.82,2.4,2.65s3.41,1.59,5.43,2.27
				c2.02,0.68,3.27,1.21,3.74,1.6l4.86-10.6l1.53-3.96l-1.09-0.32c-0.68-0.17-2.81-0.3-6.39-0.38h-0.96
				c-0.55-0.17-1.15-0.26-1.79-0.26c-1.36,0-2.49,0.48-3.39,1.44c-0.89,0.96-1.68,2.18-2.36,3.67c-0.68,1.49-1.24,2.47-1.66,2.94
				C828.19,491.17,828.08,491.49,828.08,491.79z"/>
		</g>
		<g>
			<path class="st0" d="M812.69,588.5c0-0.17,0.02-0.31,0.06-0.42c0.04-0.11,0.12-0.19,0.22-0.26c0.11-0.06,0.2-0.12,0.29-0.16
				c0.08-0.04,0.25-0.11,0.51-0.19c0.25-0.08,0.47-0.15,0.64-0.19c0.77-0.25,1.58-0.38,2.43-0.38c0.51,0,0.92,0.02,1.21,0.06
				c1.53,0.21,3.39,0.7,5.56,1.47c3.83,1.32,6.24,2.3,7.22,2.94c1.11,0.68,1.77,1.75,1.98,3.19v0.58c0,1.36-0.79,2.04-2.36,2.04
				c-1.24,0-2.85-0.3-4.85-0.89c-4.34-1.28-7.52-2.41-9.52-3.39c-2.04-1.02-3.07-1.7-3.07-2.04c0-0.08-0.05-0.42-0.16-1.02
				C812.74,589.25,812.69,588.8,812.69,588.5z M813.52,574c0-0.89,0.92-1.34,2.75-1.34c1.7,0,3.77,0.38,6.2,1.15
				c3.19,0.98,6.07,2.32,8.62,4.02c2.64,1.79,3.96,3.6,3.96,5.43c0,1.49-0.81,2.24-2.43,2.24c-1.75,0-4.15-0.71-7.22-2.14
				c-3.07-1.43-5.77-2.86-8.11-4.31c-2.04-1.23-3.07-2.09-3.07-2.56c0-0.68-0.13-1.21-0.38-1.6
				C813.63,574.55,813.52,574.25,813.52,574z M823.93,624.85c0-1.53,1.21-4.62,3.64-9.26l18.97-26.7c0.77-0.38,1.7-0.58,2.81-0.58
				c0.94,0,2.02,0.13,3.26,0.38c1.06,0.26,1.78,0.57,2.14,0.93c0.36,0.36,0.71,1.03,1.05,2.01c0.08,0.17,0.13,0.45,0.13,0.83
				c0,1.15-0.66,2.36-1.98,3.64c-2.34,2.34-5.73,6.83-10.16,13.48c-4.47,6.64-8.28,10.75-11.43,12.33c-0.3,0.13-0.89,0.64-1.79,1.53
				c-2.6,1.96-4.43,2.94-5.49,2.94C824.32,626.38,823.93,625.87,823.93,624.85z M849.36,574.96v-0.32c0.51-0.64,1.28-0.96,2.3-0.96
				c1.45,0,2.9,0.49,4.34,1.47c0.6,0.43,1.1,1.21,1.5,2.36c0.4,1.15,0.61,2.32,0.61,3.51c0,2.13-0.57,3.51-1.72,4.15
				c-0.17,0.09-0.3,0.13-0.38,0.13c-1.02,0-2.39-1.38-4.09-4.15C850.21,578.39,849.36,576.32,849.36,574.96z M859.64,572.27
				c0-0.6,0.49-0.94,1.47-1.02h0.32c1.11,0,2.31,0.38,3.61,1.15c1.3,0.77,2.14,1.62,2.52,2.56c0.38,0.81,0.58,1.62,0.58,2.43
				c0,1.15-0.36,2.15-1.09,3c-0.72,0.85-1.6,1.28-2.62,1.28c-0.51,0-0.89-0.04-1.15-0.13l-3.19-7.15l-0.38-1.72
				c0-0.04-0.01-0.11-0.03-0.19C859.65,572.38,859.64,572.32,859.64,572.27z"/>
		</g>
		<g>
			<path class="st0" d="M814.92,724.43c0-1.45,0.53-3.39,1.6-5.81c1.36-3.15,3.24-6.49,5.62-10.03c2.98-4.39,5.09-7.24,6.32-8.56
				c0.21-0.21,1.03-1.22,2.46-3.03c1.43-1.81,2.14-2.8,2.14-2.97c-0.04-0.08-0.19-0.11-0.45-0.06c-0.25,0.04-0.6,0.13-1.02,0.25
				c-0.85,0.26-2.51,0.38-4.98,0.38c-1.62,0-2.71-0.06-3.26-0.19c-0.77-0.17-1.45-0.42-2.04-0.77c-1.19-0.6-1.92-0.89-2.17-0.89
				c-0.25,0-0.5-0.43-0.73-1.28c-0.23-0.85-0.35-1.47-0.35-1.85c0-0.43,0.13-0.64,0.38-0.64c0.3,0,0.74-0.17,1.34-0.51
				c1.19-0.6,3.64-1.17,7.35-1.72c3.71-0.55,6.86-0.92,9.45-1.09v-6.45c0-3.15,0.02-4.9,0.06-5.24c0.08-0.55,0.32-0.92,0.7-1.09
				c0.04,0,0.08-0.02,0.13-0.06c1.02-0.47,1.94-0.7,2.75-0.7c1.66,0,3.16,0.66,4.5,1.98c1.34,1.32,2.18,2.73,2.52,4.22
				c0.13,0.51,0.19,1.51,0.19,3v3.19l0.96-0.26c1.28-0.21,2.94-0.32,4.98-0.32c0.89,0,1.51,0.04,1.85,0.13
				c0.34,0.09,0.77,0.34,1.28,0.77c1.66,1.28,2.49,2.38,2.49,3.32c0,1.92-2.83,3.09-8.5,3.51l-2.87,0.25
				c-0.09,1.15-0.13,3.11-0.13,5.88c0,2,0.04,5.16,0.13,9.49c0.08,4.32,0.13,7.46,0.13,9.42c0,0.26,0,0.65,0,1.18
				c0,0.53,0,0.97,0,1.31c0,0.34,0,0.79,0,1.34c0,0.55-0.02,1.01-0.06,1.37c-0.04,0.36-0.1,0.77-0.16,1.21
				c-0.06,0.45-0.15,0.81-0.26,1.09c-0.11,0.28-0.25,0.55-0.42,0.83c-0.17,0.28-0.36,0.48-0.58,0.61c-0.21,0.13-0.47,0.19-0.77,0.19
				h-0.19c-0.68-0.04-1.45-0.49-2.3-1.34c-0.85-0.85-1.51-1.81-1.98-2.87c-2.34-4.94-3.51-9.35-3.51-13.22
				c0-0.34,0.06-2.04,0.19-5.11c0.08-1.7,0.13-2.58,0.13-2.62c0.04-0.26,0.04-0.53,0-0.83c-0.09,0-0.28,0.43-0.58,1.28
				c-0.25,0.77-0.94,2.17-2.04,4.22s-2.41,4-3.9,5.88c-1.96,2.47-3.24,4.02-3.83,4.66c-0.77,0.72-1.43,1.7-1.98,2.94
				c-0.89,1.66-2.71,3.73-5.43,6.2c-1.49,1.36-2.66,2.04-3.51,2.04c-0.51,0-0.92-0.26-1.21-0.77
				C815.07,725.77,814.92,725.16,814.92,724.43z"/>
		</g>
	</g>
	<g>
		<g>
			<path class="st0" d="M896.42,240.17c-10.75-6.83-36.16,0.94-45.57,3.54c-71.12,19.59-197.09,118.89-351.45,112.12
				c-25.79-1.13-49.2,15.62-73.8,23.43c-18.74,5.08-30.85,7.42-36.31,7.03h-3.52l-0.58,6.45c13.66,14.05,26.16,24.6,37.48,31.63
				l35.15-9.96l15.81,10.54l-0.59,21.09c-33.97,10.54-55.84,15.81-65.6,15.81l-22.26-2.35l-3.52,5.27
				c5.86,6.25,8.98,18.74,9.37,37.49c0.78,24.99,1.95,41,3.52,48.03c4.29,18.36,13.85,31.44,28.7,39.24
				c11.71-4.29,17.76-10.93,18.16-19.91l29.28-6.45l-1.76,62.67c-37.88,15.62-60.91,23.43-69.12,23.43
				c-10.16,0-18.74-3.31-25.77-9.95l-5.27,2.93c-1.17,4.3-4.49,11.23-9.96,20.79c-5.47,9.57-8.2,15.72-8.2,18.45
				c0,6.64,4,16.11,12,28.41c8,12.3,15.13,19.03,21.38,20.21c21.47-14.44,37.48-25.57,48.03-33.39
				c27.33-12.49,48.22-21.47,62.67-26.94c12.49-5.47,25.09-10.93,37.78-16.4c12.69-5.46,25.67-8.59,38.95-9.37
				c5.86,16.01,11.52,32.02,16.99,48.03c8.98,17.57,22.06,27.53,39.24,29.87h1.76c8.2,0.4,14.83-4.69,19.91-15.23
				c3.9-8.58,5.86-17.57,5.86-26.94c0-26.55-10.75-51.74-32.21-75.55c-20.31-22.64-43.74-37.1-70.29-43.34l-4.69,1.17
				c5.47,11.71,9.37,23.82,11.71,36.32c-15.23,5.08-29.87,10.35-43.92,15.81l0.59-55.05c35.14-6.64,57.2-12.89,66.18-18.75
				c2.35-3.9,7.03-13.07,14.06-27.52c5.46-11.71,10.73-20.11,15.82-25.19c10.15-10.54,15.23-18.54,15.23-24.01
				c0-5.86-6.25-13.66-18.74-23.43c-12.5-9.76-21.67-14.64-27.53-14.64c-8.2,0-28.31,3.91-60.32,11.71l8.2-19.91
				c0-6.24-4.1-11.13-12.3-14.64c3.9-1.17,234.13-29.44,266.17-39.12c73.25-22.14,93.77-37.16,107.32-47.7
				c20.2-15.72,26.4-43.26,26.4-45.99C916.86,260.11,907.16,247.01,896.42,240.17z M460.57,513.64l-32.22,8.2
				c0.39-7.81-0.98-19.71-4.1-35.73c10.15-2.35,22.64-5.47,37.48-9.37L460.57,513.64z M548.42,463.27l-11.71,31.63
				c-8.59,5.47-17.77,8.4-27.53,8.79l1.17-33.39C521.67,467.18,534.37,464.83,548.42,463.27z"/>
		</g>
		<g>
			<path class="st0" d="M696.93,251.74c-18.17-10.27-36.35-15.41-54.52-15.41c-6.33,0-14.82,1.39-25.48,4.15
				c-27.26,8.29-47.61,14.62-61.03,18.96c-80.99,21.33-141.83,36.94-182.51,46.81c-10.27-4.34-23.31-7.5-39.11-9.48
				c-3.95-0.39-17.38-1.38-40.29-2.96l-0.59,5.93c7.11,7.91,14.22,15.91,21.33,24c7.11,8.1,10.67,18.07,10.67,29.92
				c0,64-7.7,131.16-23.11,201.48c-17.39,80.2-40.89,143.02-70.52,188.44c30.42-3.17,54.71-17.39,72.88-42.67
				c23.7-32.78,42.27-86.71,55.7-161.77c11.05-59.64,16.78-117.72,17.18-174.22c22.52-13.04,62.61-27.65,120.29-43.85
				c50.56-13.82,92.83-23.31,126.81-28.44l7.7,2.37c0.07,11.11,0.12,21.92,0.16,32.48c33.9-10.41,65.52-23.99,94.7-37.82
				C726.72,275.34,716.64,262.69,696.93,251.74z"/>
		</g>
		<g>
			<path class="st0" d="M950.59,850c-10.27-41.08-16-71.7-17.18-91.85l-4.15-4.74c-7.91,43.06-17.98,74.66-30.22,94.81
				c-30.81-45.03-191.63-143.67-206.85-404.43c-1.23-21.06-1.32-39.08-0.83-54.05c-18.94,2.71-39,5.47-58.56,8.11
				c0.59,80.16,2.51,139.51,13.17,176.31c71.02,245.37,200.53,325.42,242.4,364.13c16.2,15.01,34.76,24.09,55.7,27.26
				c14.22-5.14,21.33-14.03,21.33-26.67C965.41,918.34,960.47,888.72,950.59,850z"/>
		</g>
		<g>
			<g>
				<path class="st0" d="M787.76,199.71l-72.21-0.04l-36.11,0.09l-36.11,0.19L498.9,200.9l-72.21,0.57l-36.11,0.35l-36.11,0.45
					l-36.11,0.51l-36.11,0.64l-72.21,1.29l-5.33,0.1l0.08,5.15c0.4,24.24,0.89,48.48,1.18,72.72l0.49,36.36l0.32,36.36l0.25,36.36
					l0.1,36.36l-0.03,36.36l-0.18,36.36l-0.34,36.36l-0.52,36.36l-0.64,36.36l-0.72,36.36l-1.5,72.72l-0.64,36.36
					c-0.19,12.12-0.44,24.24-0.56,36.36l-0.08,7.93l8.1,0.08l36.11,0.37l36.11,0.2l36.11,0.03l36.11-0.1l72.21-0.38l72.21-0.69
					l36.11-0.45l36.11-0.53l36.11-0.63l36.11-0.75c12.04-0.26,24.07-0.46,36.11-0.81l36.11-0.94l23.83-0.72
					c-1.23-1.78-2.45-3.56-3.66-5.36l-20.17-0.61l-36.11-0.94c-12.04-0.34-24.07-0.54-36.11-0.81l-36.11-0.75l-36.11-0.63
					l-36.11-0.53l-36.11-0.45l-72.21-0.69l-72.21-0.38l-36.11-0.1l-36.11,0.03l-36.11,0.2l-28.2,0.29
					c-0.13-9.42-0.3-18.84-0.45-28.26l-0.64-36.36l-1.5-72.72l-0.72-36.36L214,573.55l-0.52-36.36l-0.34-36.36l-0.18-36.36
					l-0.03-36.36l0.1-36.36l0.25-36.36l0.32-36.36l0.49-36.36c0.27-22.46,0.71-44.92,1.09-67.38l67.06,1.2l36.11,0.64l36.11,0.51
					l36.11,0.45l36.11,0.35L498.9,219l144.43,0.95l36.11,0.19l36.11,0.09l62.02-0.03l0.21,45.15c6.89-3.42,13.56-6.7,20-9.79
					l0.22-45.61l0.05-10.24L787.76,199.71z"/>
				<path class="st0" d="M318.37,800.83l-36.11-0.04l-36.11-0.2l-44.7-0.46l0.08-8.43c0.08-8.35,0.23-16.84,0.37-25.04
					c0.06-3.77,0.13-7.55,0.19-11.32l0.64-36.36l1.5-72.72l0.72-36.36l0.64-36.36l0.52-36.36l0.34-36.36l0.18-36.36l0.03-36.36
					l-0.1-36.36l-0.25-36.36l-0.32-36.36l-0.49-36.36c-0.2-16.28-0.49-32.83-0.77-48.84c-0.14-7.96-0.28-15.92-0.41-23.88
					l-0.09-5.65l114.15-2.03l36.11-0.51l36.11-0.45l36.11-0.35l72.21-0.57l144.43-0.95l36.11-0.19l36.11-0.09l83.01,0.04
					l-0.27,56.66l-0.28,0.14c-5.67,2.72-11.84,5.73-20,9.79l-0.72,0.36l-0.22-45.46l-61.52,0.03l-36.11-0.09l-36.11-0.19
					L498.9,219.5l-72.21-0.57l-36.11-0.35l-36.11-0.45l-36.11-0.51l-102.67-1.83c-0.1,5.93-0.21,11.85-0.31,17.78
					c-0.28,16.09-0.58,32.74-0.78,49.1l-0.49,36.36l-0.32,36.36l-0.25,36.36l-0.1,36.36l0.03,36.36l0.18,36.36l0.34,36.36
					l0.52,36.36l0.64,36.36l0.72,36.36l1.5,72.72l0.79,46.18c0.1,5.98,0.2,11.97,0.28,17.95l27.7-0.28l36.11-0.2l36.11-0.04
					l36.11,0.1l72.21,0.38l72.22,0.69l36.11,0.45l36.11,0.53l36.11,0.63l36.11,0.75c3.79,0.08,7.57,0.16,11.36,0.24
					c8.11,0.16,16.5,0.33,24.75,0.57l36.11,0.94l20.43,0.62l0.14,0.21c1.21,1.8,2.43,3.58,3.65,5.36l0.52,0.75l-24.75,0.75
					l-36.11,0.94c-8.25,0.23-16.64,0.4-24.75,0.57c-3.79,0.08-7.57,0.15-11.36,0.24l-36.11,0.75l-36.11,0.63l-36.11,0.53
					l-36.11,0.45l-72.22,0.69l-72.22,0.38L318.37,800.83z M202.46,799.15l43.7,0.45l36.11,0.2l36.1,0.04l36.11-0.1l72.21-0.38
					l72.21-0.69l36.11-0.45l36.1-0.53l36.11-0.63l36.11-0.75c3.79-0.08,7.57-0.16,11.36-0.24c8.11-0.17,16.5-0.33,24.74-0.57
					l36.11-0.94l22.91-0.69c-1-1.46-2-2.93-3-4.4l-19.92-0.6l-36.1-0.94c-8.25-0.23-16.63-0.4-24.75-0.57
					c-3.79-0.08-7.57-0.15-11.36-0.24l-36.11-0.75l-36.11-0.63L535,785.21l-36.11-0.45l-72.21-0.69l-72.21-0.38l-36.11-0.1
					l-36.1,0.04l-36.1,0.2l-28.7,0.29l-0.01-0.5c-0.08-6.15-0.19-12.3-0.29-18.45L216.37,719l-1.5-72.72l-0.72-36.36l-0.64-36.36
					l-0.52-36.36l-0.34-36.36l-0.18-36.36l-0.03-36.36l0.1-36.36l0.25-36.36l0.32-36.36l0.49-36.36c0.2-16.37,0.49-33.01,0.78-49.11
					c0.11-6.09,0.21-12.18,0.32-18.28l0.01-0.5l103.67,1.85l36.11,0.51l36.11,0.45l36.11,0.35l72.21,0.57l144.43,0.95l36.11,0.19
					l36.11,0.09l62.52-0.03l0.21,44.85c7.67-3.81,13.58-6.7,19.01-9.3l0.26-55.03l-82-0.04l-36.11,0.09l-36.1,0.19l-144.43,0.95
					l-72.21,0.57l-36.11,0.35l-36.11,0.45l-36.11,0.51l-113.15,2.01l0.08,4.65c0.13,7.96,0.27,15.92,0.41,23.88
					c0.28,16.01,0.58,32.56,0.77,48.84l0.49,36.36l0.32,36.36l0.25,36.36l0.1,36.36l-0.03,36.36l-0.18,36.36l-0.34,36.36
					l-0.52,36.36l-0.64,36.36l-0.72,36.36l-1.5,72.72l-0.64,36.36c-0.06,3.77-0.12,7.55-0.19,11.32
					c-0.14,8.21-0.29,16.69-0.37,25.04L202.46,799.15z"/>
			</g>
			<g>
				<path class="st0" d="M778.65,373.9l0.55,54.21l1,72.72l0.55,36.36l0.65,36.36l0.66,36.36l0.79,36.36l0.82,36.36l0.61,24.12
					c2.23,3.31,4.46,6.55,6.71,9.73l0.86-33.84l0.82-36.36l0.79-36.36l0.66-36.36l0.65-36.36l0.55-36.36l1-72.72l0.61-59.46
					c-3.6,1.14-7.32,2.29-11.19,3.46C783.93,372.65,781.54,373.25,778.65,373.9z"/>
				<path class="st0" d="M791.45,717.99l-0.87-1.23c-2.26-3.19-4.52-6.47-6.72-9.74l-0.08-0.12l-0.62-24.26l-0.82-36.36l-0.79-36.36
					l-1.31-72.72l-0.55-36.36l-1-72.72l-0.56-54.62l0.4-0.09c2.94-0.65,5.31-1.25,7.05-1.78c3.79-1.15,7.55-2.31,11.19-3.46
					l0.66-0.21l-0.61,60.15l-1,72.72l-0.55,36.36l-1.31,72.72l-0.79,36.36l-0.82,36.36L791.45,717.99z M784.78,706.59
					c1.89,2.8,3.82,5.61,5.75,8.36l0.82-32.33l0.82-36.36l0.79-36.36l1.31-72.72l0.55-36.36l1-72.72l0.6-58.77
					c-3.44,1.08-6.98,2.18-10.54,3.25c-1.69,0.51-3.95,1.08-6.73,1.71l0.55,53.81l1,72.72l0.55,36.36l1.31,72.72l0.79,36.36
					l0.82,36.36L784.78,706.59z"/>
			</g>
		</g>
	</g>
</g>
</svg>
